<?xml version="1.0" encoding="UTF-8" standalone="no"?>
<!DOCTYPE svg PUBLIC "-//W3C//DTD SVG 1.1//EN"
"http://www.w3.org/Graphics/SVG/1.1/DTD/svg11.dtd">
<svg viewBox="0 0 2200 1237" version="1.1" xmlns="http://www.w3.org/2000/svg" xmlns:xlink="http://www.w3.org/1999/xlink">
<defs>
<clipPath id="c0_4"><path d="M-.2 1237.8V-.2H2200.3v1238Z"/></clipPath>
<clipPath id="c1_4"><path d="M995.1 299.4V173.7h886.7V299.4Z"/></clipPath>
<clipPath id="c2_4"><path d="M995.1 908.3V775.1h886.8V908.3Z"/></clipPath>
<clipPath id="c3_4"><path d="M-.2 1237.8V-.2h996v1238Z"/></clipPath>
<style type="text/css"><![CDATA[
.g0_4{
fill: #FFF;
}
.g1_4{
fill: #000;
}
]]></style>
</defs>
<g clip-path="url(#c0_4)">
<path d="M0 0H2200V1237.5H0V0Z" class="g0_4"/>
<path d="M0 0H2200V1237.5H0V0Z" class="g0_4"/>
</g>
<image clip-path="url(#c1_4)" x="995" y="174" width="887" height="126" xlink:href="shade/1.png"/>
<image clip-path="url(#c2_4)" x="995" y="775" width="887" height="134" xlink:href="shade/2.png"/>
<path d="M1125.9 1136.2c0 .4 0 .8 -.1 1.3c-.1 .4 -.2 .8 -.4 1.1c-.1 .4 -.3 .8 -.6 1.1c-.2 .4 -.5 .7 -.8 1c-.2 .3 -.6 .5 -.9 .8c-.4 .2 -.7 .4 -1.1 .5c-.4 .2 -.8 .3 -1.2 .4c-.4 .1 -.8 .1 -1.2 .1c-.4 0 -.8 0 -1.2 -.1c-.4 -.1 -.8 -.2 -1.2 -.4c-.4 -.1 -.8 -.3 -1.1 -.5c-.4 -.3 -.7 -.5 -1 -.8c-.3 -.3 -.5 -.6 -.7 -1c-.3 -.3 -.5 -.7 -.6 -1.1c-.2 -.3 -.3 -.7 -.4 -1.1c-.1 -.5 -.1 -.9 -.1 -1.3c0 -.4 0 -.8 .1 -1.2c.1 -.4 .2 -.8 .4 -1.2c.1 -.4 .3 -.7 .6 -1.1c.2 -.3 .4 -.6 .7 -.9c.3 -.3 .6 -.6 1 -.8c.3 -.2 .7 -.4 1.1 -.6c.4 -.2 .8 -.3 1.2 -.4c.4 0 .8 -.1 1.2 -.1c.4 0 .8 .1 1.2 .1c.4 .1 .8 .2 1.2 .4c.4 .2 .7 .4 1.1 .6c.3 .2 .7 .5 .9 .8c.3 .3 .6 .6 .8 .9c.3 .4 .5 .7 .6 1.1c.2 .4 .3 .8 .4 1.2c.1 .4 .1 .8 .1 1.2Z" class="g1_4"/>
<path d="M1102 344.5c0 .8 -.1 1.5 -.4 2.2c-.3 .7 -.7 1.3 -1.3 1.8c-.5 .6 -1.1 1 -1.8 1.3c-.7 .3 -1.5 .4 -2.2 .4c-.8 0 -1.5 -.1 -2.2 -.4c-.7 -.3 -1.3 -.7 -1.9 -1.3c-.5 -.5 -.9 -1.1 -1.2 -1.8c-.3 -.7 -.5 -1.4 -.5 -2.2c0 -.8 .2 -1.5 .5 -2.2c.3 -.7 .7 -1.3 1.2 -1.9c.6 -.5 1.2 -.9 1.9 -1.2c.7 -.3 1.4 -.4 2.2 -.4c.7 0 1.5 .1 2.2 .4c.7 .3 1.3 .7 1.8 1.2c.6 .6 1 1.2 1.3 1.9c.3 .7 .4 1.4 .4 2.2Z" class="g1_4"/>
<image clip-path="url(#c3_4)" x="-23" y="-20" width="1019" height="1278" xlink:href="shade/3.png"/>
<path d="M412 722H560.3c11.6 0 22.8 4.6 31 12.8c8.2 8.2 12.8 19.3 12.8 30.9c0 11.6 -4.6 22.7 -12.8 30.9c-8.2 8.2 -19.4 12.8 -31 12.8H412c-24.1 0 -43.7 -19.6 -43.7 -43.7C368.3 741.5 387.9 722 412 722Z" class="g1_4"/>
<path d="M1107.8 487.4c0 .5 0 .9 -.1 1.3c-.1 .4 -.2 .8 -.4 1.1c-.1 .4 -.3 .8 -.6 1.1c-.2 .4 -.5 .7 -.7 1c-.3 .3 -.7 .5 -1 .8c-.3 .2 -.7 .4 -1.1 .6c-.4 .1 -.8 .2 -1.2 .3c-.4 .1 -.8 .1 -1.2 .1c-.4 0 -.8 0 -1.2 -.1c-.4 -.1 -.8 -.2 -1.2 -.3c-.4 -.2 -.8 -.4 -1.1 -.6c-.3 -.3 -.7 -.5 -1 -.8c-.3 -.3 -.5 -.6 -.7 -1c-.3 -.3 -.5 -.7 -.6 -1.1c-.2 -.3 -.3 -.7 -.4 -1.1c-.1 -.4 -.1 -.8 -.1 -1.3c0 -.4 0 -.8 .1 -1.2c.1 -.4 .2 -.8 .4 -1.2c.1 -.4 .3 -.7 .6 -1.1c.2 -.3 .4 -.6 .7 -.9c.3 -.3 .7 -.6 1 -.8c.3 -.2 .7 -.4 1.1 -.6c.4 -.1 .8 -.3 1.2 -.3c.4 -.1 .8 -.2 1.2 -.2c.4 0 .8 .1 1.2 .2c.4 0 .8 .2 1.2 .3c.4 .2 .8 .4 1.1 .6c.3 .2 .7 .5 1 .8c.2 .3 .5 .6 .7 .9c.3 .4 .5 .7 .6 1.1c.2 .4 .3 .8 .4 1.2c.1 .4 .1 .8 .1 1.2Z" class="g1_4"/>
<path d="M1098.6 581.3c0 .8 -.2 1.5 -.5 2.2c-.3 .7 -.7 1.4 -1.2 1.9c-.6 .5 -1.2 .9 -1.9 1.2c-.7 .3 -1.4 .5 -2.2 .5c-.7 0 -1.5 -.2 -2.2 -.5c-.7 -.3 -1.3 -.7 -1.8 -1.2c-.6 -.5 -1 -1.2 -1.3 -1.9c-.3 -.7 -.4 -1.4 -.4 -2.2c0 -.7 .1 -1.4 .4 -2.1c.3 -.7 .7 -1.4 1.3 -1.9c.5 -.5 1.1 -1 1.8 -1.2c.7 -.3 1.5 -.5 2.2 -.5c.8 0 1.5 .2 2.2 .5c.7 .2 1.3 .7 1.9 1.2c.5 .5 .9 1.2 1.2 1.9c.3 .7 .5 1.4 .5 2.1Z" class="g1_4"/>
</svg>