<?xml version="1.0" encoding="UTF-8" standalone="no"?>
<!DOCTYPE svg PUBLIC "-//W3C//DTD SVG 1.1//EN"
"http://www.w3.org/Graphics/SVG/1.1/DTD/svg11.dtd">
<svg viewBox="0 0 2200 1237" version="1.1" xmlns="http://www.w3.org/2000/svg" xmlns:xlink="http://www.w3.org/1999/xlink">
<defs>
<clipPath id="c0_6"><path d="M-.2 1237.8V-.2H2200.3v1238Z"/></clipPath>
<clipPath id="c1_6"><path d="M88 1114.1V597.8H2111.1v516.3Z"/></clipPath>
<style type="text/css"><![CDATA[
.g0_6{
fill: #FFF;
}
.g1_6{
fill: #000;
}
]]></style>
</defs>
<g clip-path="url(#c0_6)">
<path d="M0 0H2200V1237.5H0V0Z" class="g0_6"/>
<path d="M0 0H2200V1237.5H0V0Z" class="g0_6"/>
</g>
<image clip-path="url(#c1_6)" x="88" y="598" width="2024" height="516" xlink:href="shade/1.png"/>
<path d="M225.2 831.7c0 .5 0 1 -.1 1.5c-.1 .6 -.3 1.1 -.5 1.5c-.2 .5 -.5 1 -.7 1.4c-.3 .5 -.7 .9 -1 1.2c-.4 .4 -.8 .8 -1.3 1c-.4 .3 -.9 .6 -1.3 .8c-.5 .2 -1 .3 -1.5 .4c-.6 .1 -1.1 .2 -1.6 .2c-.5 0 -1.1 -.1 -1.6 -.2c-.5 -.1 -1 -.2 -1.5 -.4c-.5 -.2 -.9 -.5 -1.4 -.8c-.4 -.2 -.8 -.6 -1.2 -1c-.4 -.3 -.7 -.7 -1 -1.2c-.3 -.4 -.5 -.9 -.7 -1.4c-.2 -.4 -.4 -.9 -.5 -1.5c-.1 -.5 -.1 -1 -.1 -1.5c0 -.6 0 -1.1 .1 -1.6c.1 -.5 .3 -1 .5 -1.5c.2 -.5 .4 -.9 .7 -1.4c.3 -.4 .6 -.8 1 -1.2c.4 -.4 .8 -.7 1.2 -1c.5 -.3 .9 -.5 1.4 -.7c.5 -.2 1 -.4 1.5 -.5c.5 -.1 1.1 -.1 1.6 -.1c.5 0 1 0 1.6 .1c.5 .1 1 .3 1.5 .5c.4 .2 .9 .4 1.3 .7c.5 .3 .9 .6 1.3 1c.3 .4 .7 .8 1 1.2c.2 .5 .5 .9 .7 1.4c.2 .5 .4 1 .5 1.5c.1 .5 .1 1 .1 1.6Z" class="g1_6"/>
<path d="M779.5 967.6c0 .5 0 1 -.1 1.5c-.1 .5 -.3 1 -.5 1.5c-.2 .5 -.4 1 -.7 1.4c-.3 .5 -.7 .9 -1 1.2c-.4 .4 -.8 .7 -1.3 1c-.4 .3 -.9 .6 -1.3 .8c-.5 .2 -1 .3 -1.5 .4c-.6 .1 -1.1 .2 -1.6 .2c-.5 0 -1.1 -.1 -1.6 -.2c-.5 -.1 -1 -.2 -1.5 -.4c-.5 -.2 -.9 -.5 -1.4 -.8c-.4 -.3 -.8 -.6 -1.2 -1c-.4 -.3 -.7 -.7 -1 -1.2c-.3 -.4 -.5 -.9 -.7 -1.4c-.2 -.5 -.4 -1 -.5 -1.5c-.1 -.5 -.1 -1 -.1 -1.5c0 -.6 0 -1.1 .1 -1.6c.1 -.5 .3 -1 .5 -1.5c.2 -.5 .4 -1 .7 -1.4c.3 -.4 .6 -.8 1 -1.2c.4 -.4 .8 -.7 1.2 -1c.5 -.3 .9 -.6 1.4 -.8c.5 -.2 1 -.3 1.5 -.4c.5 -.1 1.1 -.2 1.6 -.2c.5 0 1 .1 1.6 .2c.5 .1 1 .2 1.5 .4c.4 .2 .9 .5 1.3 .8c.5 .3 .9 .6 1.3 1c.3 .4 .7 .8 1 1.2c.3 .4 .5 .9 .7 1.4c.2 .5 .4 1 .5 1.5c.1 .5 .1 1 .1 1.6Z" class="g1_6"/>
<path d="M248.5 695.8c0 .5 -.1 1 -.2 1.6c-.1 .5 -.2 1 -.5 1.5c-.2 .4 -.4 .9 -.7 1.3c-.3 .5 -.6 .9 -1 1.3c-.4 .3 -.8 .7 -1.2 1c-.4 .3 -.9 .5 -1.4 .7c-.5 .2 -1 .4 -1.5 .5c-.5 .1 -1 .1 -1.6 .1c-.5 0 -1 0 -1.5 -.1c-.5 -.1 -1 -.3 -1.5 -.5c-.5 -.2 -1 -.4 -1.4 -.7c-.5 -.3 -.9 -.7 -1.2 -1c-.4 -.4 -.7 -.8 -1 -1.3c-.3 -.4 -.6 -.9 -.8 -1.3c-.2 -.5 -.3 -1 -.4 -1.5c-.1 -.6 -.2 -1.1 -.2 -1.6c0 -.5 .1 -1.1 .2 -1.6c.1 -.5 .2 -1 .4 -1.5c.2 -.5 .5 -.9 .8 -1.4c.3 -.4 .6 -.8 1 -1.2c.3 -.4 .7 -.7 1.2 -1c.4 -.3 .9 -.5 1.4 -.7c.5 -.2 1 -.4 1.5 -.5c.5 -.1 1 -.1 1.5 -.1c.6 0 1.1 0 1.6 .1c.5 .1 1 .3 1.5 .5c.5 .2 1 .4 1.4 .7c.4 .3 .8 .6 1.2 1c.4 .4 .7 .8 1 1.2c.3 .5 .5 .9 .7 1.4c.3 .5 .4 1 .5 1.5c.1 .5 .2 1.1 .2 1.6Z" class="g1_6"/>
<path d="M1269.7 725.2c0 .5 -.1 1 -.2 1.6c-.1 .5 -.2 1 -.4 1.5c-.2 .4 -.5 .9 -.8 1.3c-.3 .5 -.6 .9 -1 1.3c-.3 .3 -.8 .7 -1.2 1c-.4 .3 -.9 .5 -1.4 .7c-.5 .2 -1 .4 -1.5 .5c-.5 .1 -1 .1 -1.5 .1c-.6 0 -1.1 0 -1.6 -.1c-.5 -.1 -1 -.3 -1.5 -.5c-.5 -.2 -1 -.4 -1.4 -.7c-.4 -.3 -.8 -.7 -1.2 -1c-.4 -.4 -.7 -.8 -1 -1.3c-.3 -.4 -.6 -.9 -.8 -1.3c-.2 -.5 -.3 -1 -.4 -1.5c-.1 -.6 -.2 -1.1 -.2 -1.6c0 -.5 .1 -1.1 .2 -1.6c.1 -.5 .2 -1 .4 -1.5c.2 -.5 .5 -.9 .8 -1.4c.3 -.4 .6 -.8 1 -1.2c.4 -.4 .8 -.7 1.2 -1c.4 -.3 .9 -.5 1.4 -.7c.5 -.2 1 -.4 1.5 -.5c.5 -.1 1 -.1 1.6 -.1c.5 0 1 0 1.5 .1c.5 .1 1 .3 1.5 .5c.5 .2 1 .4 1.4 .7c.4 .3 .9 .6 1.2 1c.4 .4 .7 .8 1 1.2c.3 .5 .6 .9 .8 1.4c.2 .5 .3 1 .4 1.5c.1 .5 .2 1.1 .2 1.6Z" class="g1_6"/>
<path d="M1269.7 831.7c0 .5 -.1 1 -.2 1.5c-.1 .6 -.2 1.1 -.4 1.5c-.2 .5 -.5 1 -.8 1.4c-.3 .5 -.6 .9 -1 1.2c-.3 .4 -.8 .8 -1.2 1c-.4 .3 -.9 .6 -1.4 .8c-.5 .2 -1 .3 -1.5 .4c-.5 .1 -1 .2 -1.5 .2c-.6 0 -1.1 -.1 -1.6 -.2c-.5 -.1 -1 -.2 -1.5 -.4c-.5 -.2 -1 -.5 -1.4 -.8c-.4 -.2 -.8 -.6 -1.2 -1c-.4 -.3 -.7 -.7 -1 -1.2c-.3 -.4 -.6 -.9 -.8 -1.4c-.2 -.4 -.3 -.9 -.4 -1.5c-.1 -.5 -.2 -1 -.2 -1.5c0 -.6 .1 -1.1 .2 -1.6c.1 -.5 .2 -1 .4 -1.5c.2 -.5 .5 -.9 .8 -1.4c.3 -.4 .6 -.8 1 -1.2c.4 -.4 .8 -.7 1.2 -1c.4 -.3 .9 -.5 1.4 -.7c.5 -.2 1 -.4 1.5 -.5c.5 -.1 1 -.1 1.6 -.1c.5 0 1 0 1.5 .1c.5 .1 1 .3 1.5 .5c.5 .2 1 .4 1.4 .7c.4 .3 .9 .6 1.2 1c.4 .4 .7 .8 1 1.2c.3 .5 .6 .9 .8 1.4c.2 .5 .3 1 .4 1.5c.1 .5 .2 1 .2 1.6Z" class="g1_6"/>
</svg>