<?xml version="1.0" encoding="UTF-8" standalone="no"?>
<!DOCTYPE svg PUBLIC "-//W3C//DTD SVG 1.1//EN"
"http://www.w3.org/Graphics/SVG/1.1/DTD/svg11.dtd">
<svg viewBox="0 0 2200 1237" version="1.1" xmlns="http://www.w3.org/2000/svg" xmlns:xlink="http://www.w3.org/1999/xlink">
<defs>
<clipPath id="c0_1"><path d="M-.2 1237.8V-.2H2200.3v1238Z"/></clipPath>
<clipPath id="c1_1"><path d="M636.3 983.4c-181.7 0 -329 -147.3 -329 -329c0 -181.7 147.3 -329 329 -329c181.7 0 329 147.3 329 329c0 181.7 -147.3 329 -329 329Z"/></clipPath>
<clipPath id="c2_1"><path d="M2200.1 1230.3L1395.3 -.1l805 -.1l-.2 1230.5Z"/></clipPath>
<style type="text/css"><![CDATA[
.g0_1{
fill: #FFF;
}
.g1_1{
fill: none;
stroke: #000;
stroke-width: 8.02;
stroke-miterlimit: 10;
}
]]></style>
</defs>
<g clip-path="url(#c0_1)">
<path d="M0 0H2200V1237.5H0V0Z" class="g0_1"/>
<path d="M0 0H2200V1237.5H0V0Z" class="g0_1"/>
</g>
<image clip-path="url(#c1_1)" x="307" y="325" width="659" height="659" xlink:href="shade/1.png"/>
<image clip-path="url(#c2_1)" x="1379" y="-400" width="1428" height="1681" xlink:href="shade/2.png"/>
<path d="M482.7 600.9H548c19.1 0 33.9 4.5 44.5 13.6c10.5 9.1 15.8 21.9 15.8 38.6c0 17.5 -5.3 31.2 -15.8 40.9c-10.6 9.7 -25.4 14.5 -44.5 14.5H520.8v42.1H482.7V600.9Zm38.1 29.9v47.8H546c8.5 0 15 -2.1 19.5 -6.2c4.6 -4.2 6.9 -10.2 6.9 -18c0 -7.7 -2.3 -13.5 -6.9 -17.6c-4.5 -4 -11 -6 -19.5 -6H520.8ZM699.2 599.6c23.2 0 42.5 7.3 57.9 21.7c15.4 14.5 23.1 32.6 23.1 54.2c0 21.9 -7.7 40.1 -23.2 54.8c-15.5 14.7 -34.7 22.1 -57.9 22.1c-23 0 -42.3 -7.4 -57.7 -22C626 715.8 618.3 697.5 618.3 675.5c0 -21.8 7.7 -39.9 23.1 -54.3c15.4 -14.4 34.7 -21.6 57.8 -21.6Zm.4 31.9c-11.7 0 -21.7 4.3 -30 12.8c-8.2 8.4 -12.3 18.9 -12.3 31.5c0 12.5 4.1 23.1 12.5 31.8c8.3 8.5 18.3 12.8 29.8 12.8c11.6 0 21.4 -4.3 29.4 -12.8c8.1 -8.7 12.1 -19.3 12.1 -31.8c0 -12.6 -4 -23.1 -12.1 -31.5c-8 -8.5 -17.8 -12.8 -29.4 -12.8Zm191 119.1L868.3 708.5H838.4v42.1h-38V600.9h66.9c19.8 0 35.1 4.5 45.9 13.6c10.9 9.1 16.3 21.9 16.3 38.6c0 23.1 -9 39.2 -27.1 48.1l31.4 49.4H890.6Zm-52.2 -72h28.9c8.2 0 14.7 -2.1 19.2 -6.2c4.6 -4.2 6.9 -10.2 6.9 -18c0 -7.7 -2.3 -13.5 -6.9 -17.6c-4.5 -4 -11 -6 -19.2 -6H838.4v47.8Zm231.2 -47.1h-45.1V750.6H986.4V631.5H941.7V600.7h127.9v30.8Zm127.3 -.7h-73v34.7h67.2v29.9h-67.2v55.2h-38V600.9h111v29.9Zm89.2 -31.2c23.2 0 42.5 7.3 57.9 21.7c15.4 14.5 23.1 32.6 23.1 54.2c0 21.9 -7.7 40.1 -23.2 54.8c-15.5 14.7 -34.8 22.1 -57.9 22.1c-23.1 0 -42.3 -7.4 -57.7 -22c-15.4 -14.6 -23.1 -32.9 -23.1 -54.9c0 -21.8 7.7 -39.9 23.1 -54.3c15.4 -14.4 34.7 -21.6 57.8 -21.6Zm.4 31.9c-11.7 0 -21.7 4.3 -30 12.8c-8.2 8.4 -12.4 18.9 -12.4 31.5c0 12.5 4.2 23.1 12.5 31.8c8.4 8.5 18.3 12.8 29.9 12.8c11.6 0 21.4 -4.3 29.4 -12.8c8 -8.7 12.1 -19.3 12.1 -31.8c0 -12.6 -4.1 -23.1 -12.1 -31.5c-8 -8.5 -17.8 -12.8 -29.4 -12.8Zm138.8 87.3h63.5v31.8H1387.2V600.9h38.1V718.8Zm119.8 31.8H1507V600.9h38.1V750.6ZM1646 599.6c23.3 0 42.6 7.3 57.9 21.7c15.5 14.5 23.2 32.6 23.2 54.2c0 21.9 -7.8 40.1 -23.3 54.8c-15.4 14.7 -34.7 22.1 -57.8 22.1c-23.1 0 -42.3 -7.4 -57.8 -22c-15.4 -14.6 -23.1 -32.9 -23.1 -54.9c0 -21.8 7.7 -39.9 23.1 -54.3c15.5 -14.4 34.7 -21.6 57.8 -21.6Zm.5 31.9c-11.7 0 -21.7 4.3 -30 12.8c-8.3 8.4 -12.4 18.9 -12.4 31.5c0 12.5 4.2 23.1 12.5 31.8c8.3 8.5 18.3 12.8 29.9 12.8c11.5 0 21.3 -4.3 29.4 -12.8c8 -8.7 12 -19.3 12 -31.8c0 -12.6 -4 -23.1 -12 -31.5c-8.1 -8.5 -17.9 -12.8 -29.4 -12.8Z" class="g1_1"/>
</svg>