<?xml version="1.0" encoding="UTF-8" standalone="no"?>
<!DOCTYPE svg PUBLIC "-//W3C//DTD SVG 1.1//EN"
"http://www.w3.org/Graphics/SVG/1.1/DTD/svg11.dtd">
<svg viewBox="0 0 2200 1237" version="1.1" xmlns="http://www.w3.org/2000/svg" xmlns:xlink="http://www.w3.org/1999/xlink">
<defs>
<clipPath id="c0_8"><path d="M-.2 1237.8V-.2H2200.3v1238Z"/></clipPath>
<clipPath id="c1_8"><path d="M-.2 1237.8V-.2H2199.1v1238Z"/></clipPath>
<clipPath id="c2_8"><path d="M1254.7 918.4L1212.4 609L2058.8 493.1l42.4 309.3l-846.5 116Z"/></clipPath>
<clipPath id="c3_8"><path d="M1255 918.5l-.3 -.2L1212.4 609.7l-.1 -.3L2058.2 493.6l42.9 308.9L1255 918.5ZM2058.2 493.6l-.1 -.4l.8 .3l-.7 .1Z"/></clipPath>
<clipPath id="c4_8"><path d="M1226.2 835.5L1212.4 483.3l880.5 -34.4l13.7 352.2l-880.4 34.4Z"/></clipPath>
<clipPath id="c5_8"><path d="M1226.5 835.5l-.3 -.1L1212.4 483.3l.3 -.2l879.7 -34.2L2106.1 801l-879.6 34.5Z"/></clipPath>
<clipPath id="c6_8"><path d="M1212.4 777.3V368h894.2V777.3Z"/></clipPath>
<clipPath id="c7_8"><path d="M1442.9 568.2l-77.1 -2.7l3.5 -106l77.4 2.5l-3.5 106l-.3 .2Z"/></clipPath>
<style type="text/css"><![CDATA[
.g0_8{
fill: #FFF;
}
.g1_8{
fill: none;
stroke: #000;
stroke-width: 4.54;
stroke-miterlimit: 10;
}
.g2_8{
fill: none;
stroke: #000;
stroke-width: 4.579;
stroke-miterlimit: 10;
}
.g3_8{
fill: none;
stroke: #000;
stroke-width: 4.583;
stroke-miterlimit: 10;
}
.g4_8{
fill: #000;
}
]]></style>
</defs>
<g clip-path="url(#c0_8)">
<path d="M0 0H2200V1237.5H0V0Z" class="g0_8"/>
<path d="M0 0H2200V1237.5H0V0Z" class="g0_8"/>
</g>
<image clip-path="url(#c1_8)" x="-119" y="-279" width="2319" height="1774" xlink:href="shade/1.png"/>
<path clip-path="url(#c2_8)" d="M1212.7 609.3L2058 493.6l42.3 308.6L1255 918L1212.7 609.3Z" class="g0_8"/>
<path clip-path="url(#c3_8)" d="M1212.7 609.3L2058.6 493.5l42.2 308.7L1255 918L1212.7 609.3Z" class="g1_8"/>
<path clip-path="url(#c4_8)" d="M1212.7 483.6L2093 449.2l13.8 351.5l-880.3 34.5L1212.7 483.6Z" class="g0_8"/>
<path clip-path="url(#c5_8)" d="M1212.7 483.6l879.9 -34.4l13.7 351.6l-879.8 34.4L1212.7 483.6Z" class="g2_8"/>
<g clip-path="url(#c6_8)">
<path d="M1212.7 368.3h894V777h-894V368.3Z" class="g0_8"/>
<path d="M1212.7 368.3h893.6V777H1212.7V368.3Z" class="g3_8"/>
</g>
<g clip-path="url(#c7_8)">
<path d="M1392.1 461.2c0 0 -22.4 -.5 -22.7 19.8c-.4 20.2 3.1 38.3 9.4 48.5c6.3 10.2 22.6 36.8 42.1 34.8c0 0 9.6 -1.7 17 -6.2l-22.8 -19.2c0 0 -7.1 4.1 -11.3 -1.9c-4.2 -6 -16.9 -33.7 -16.9 -33.7c0 0 -3.5 -8.9 5.1 -12.5l.1 -29.6Z" class="g4_8"/>
<path d="M1394.7 461.2c0 0 1.7 -.5 4.9 1.4c3.1 1.8 3.1 3.3 3.1 3.3l-.4 20.3c0 0 -.9 1.1 -2.1 2.2c-1.2 1.2 -5 2.8 -5.6 1.6c-.5 -1.2 .1 -28.8 .1 -28.8Z" class="g4_8"/>
<path d="M1417.1 536.8l6.6 -3.2c0 0 1.4 -.3 3.7 1.3c2.3 1.5 14.1 11.6 14.1 11.6c0 0 2 1.8 1.3 3.9c-.6 2 -2.2 6.4 -2.2 6.4l-23.5 -20Z" class="g4_8"/>
</g>
<path d="M1359.3 640.1H1328c-1 -12.2 -11.7 -21.3 -23.9 -20.3c-10.9 .9 -19.4 9.4 -20.3 20.3h-31.2c-3.5 0 -6.3 2.9 -6.4 6.3v69.1c0 3.5 2.8 6.3 6.4 6.4h106.7c3.5 0 6.3 -2.9 6.4 -6.4V646.4c-.1 -3.4 -3 -6.3 -6.4 -6.3Zm-109.4 75.4V646.4c0 -.2 0 -.4 .1 -.6l39.7 35.1L1249.9 716c0 -.1 0 -.3 0 -.5Zm56 -51.5c11.6 0 21.2 -8.8 22.1 -20.4h31.1l-51 44.9c-1.2 1.1 -3.2 1.1 -4.4 0l-51 -44.8h31.1c1 11.5 10.6 20.3 22.1 20.3Zm-13.5 19.3l9.1 8c2.6 2.2 6.5 2.2 9 0l9.1 -8l39.6 35H1252.7l39.7 -35Zm29.8 -2.4L1362 645.8c0 .2 .1 .4 .1 .6v69.1c0 .2 0 .4 -.1 .6l-39.8 -35.2Zm-16.3 -57.7c10.3 0 18.6 8.4 18.6 18.6c0 10.3 -8.3 18.6 -18.6 18.6c-10.2 0 -18.5 -8.3 -18.5 -18.6c0 -10.2 8.3 -18.6 18.5 -18.6Z" class="g4_8"/>
<path d="M1307.5 629.6h-3.1c-5.9 0 -10.6 4.8 -10.6 10.7v3.1c0 5.9 4.7 10.6 10.6 10.6h1.7c1.1 0 1.8 -.8 1.8 -1.8c0 -1 -.8 -1.8 -1.8 -1.8h-1.7c-3.9 0 -7.1 -3.2 -7.1 -7.1v-3.1c0 -4 3.2 -7.1 7.1 -7.1h3.1c3.9 0 7.1 3.1 7.1 7.1v5.4c0 .5 -.4 .9 -.9 .9h-1.2c-.5 0 -.9 -.4 -.9 -.9v-5c0 -2.5 -2 -4.6 -4.5 -4.6h-2.2c-2.5 0 -4.5 2.1 -4.5 4.6v2.2c0 2.5 2 4.5 4.5 4.5h3.6c.7 1.7 2.2 2.8 4 2.8h1.2c2.4 0 4.4 -2.1 4.4 -4.5v-5.4c0 -5.8 -4.7 -10.6 -10.6 -10.6Zm-3.6 13.4v-2.2c0 -.5 .4 -1 1 -1h2.2c.5 0 1 .4 1 1V644h-3.2c-.6 0 -1 -.5 -1 -1Z" class="g4_8"/>
</svg>